<?xml version="1.0" encoding="UTF-8" standalone="no"?>
<!DOCTYPE svg PUBLIC "-//W3C//DTD SVG 1.1//EN" "http://www.w3.org/Graphics/SVG/1.1/DTD/svg11.dtd">
<svg xmlns:xl="http://www.w3.org/1999/xlink" version="1.1" xmlns:dc="http://purl.org/dc/elements/1.1/" xmlns="http://www.w3.org/2000/svg" viewBox="94.5371 59.678494 331.38224 194" width="331.38224" height="194">
  <defs/>
  <metadata> Produced by OmniGraffle 7.23.1\n2024-09-09 10:24:10 +0000</metadata>
  <g id="Canvas_1" fill-opacity="1" stroke-opacity="1" stroke="none" fill="none" stroke-dasharray="none">
    <title>Canvas 1</title>
    <g id="Canvas_1_Layer_1">
      <title>Layer 1</title>
      <g id="Graphic_2">
        <title>Text</title>
      </g>
      <g id="Graphic_3">
        <title>Text</title>
      </g>
      <g id="Graphic_4">
        <title>Text</title>
      </g>
      <g id="Graphic_5">
        <title>Text</title>
      </g>
      <g id="Graphic_10">
        <title/>
        <path d="M 421.53294 230.62918 C 421.48577 231.15622 421.35607 232.63483 421.1438 235.06505 C 420.9316 237.49528 420.7311 240.14507 420.54246 243.0145 C 420.16514 243.0145 419.75244 243.0145 419.30436 243.0145 C 418.8563 243.0145 418.4436 243.0145 418.06627 243.0145 C 406.5578 243.0145 396.32298 241.2138 387.36147 237.6124 C 378.39996 234.01097 371.0422 228.7846 365.28797 221.9331 C 361.27888 217.18978 358.10702 211.50958 355.7723 204.89233 C 353.4376 198.2751 352.27027 190.721 352.27027 182.22985 C 352.27027 174.6171 353.4258 167.66324 355.73694 161.36807 C 358.04807 155.0729 361.06663 149.58302 364.79273 144.89824 C 370.2168 138.10532 377.5038 132.71791 386.654 128.73585 C 395.80416 124.7538 405.5909 122.7628 416.01457 122.7628 C 416.5334 122.7628 417.12295 122.7628 417.78327 122.7628 C 418.4436 122.7628 418.91525 122.7628 419.19824 122.7628 C 419.2454 123.81687 419.33974 125.50044 419.48124 127.81354 C 419.62273 130.12665 419.7878 132.63004 419.97647 135.32378 C 419.5048 135.32378 419.1039 135.32378 418.77375 135.32378 C 418.4436 135.32378 418.0427 135.32378 417.57103 135.32378 C 411.6753 135.32378 405.5674 136.12897 399.2472 137.73936 C 392.927 139.34975 387.4794 141.7653 382.9043 144.98608 C 376.96143 149.20238 372.3864 154.60443 369.17913 161.1924 C 365.97186 167.78036 364.36824 174.8806 364.36824 182.49337 C 364.36824 190.39892 365.8068 197.58702 368.6839 204.05786 C 371.561 210.5287 376.11245 215.96003 382.33833 220.352 C 387.43224 223.9827 393.12743 226.61785 399.42407 228.25753 C 405.7207 229.8972 411.9819 230.71702 418.20776 230.71702 C 418.49076 230.71702 418.93883 230.71702 419.552 230.71702 C 420.16514 230.71702 420.82545 230.68774 421.53294 230.62918 Z M 421.3207 96.32323 L 403.0676 116.17487 L 393.44583 116.2627 L 375.2635 96.32323 L 381.7016 90.08666 L 398.2567 107.65448 L 398.46897 107.65448 L 414.8826 90.08666 Z" fill="black"/>
      </g>
      <g id="Graphic_11">
        <title/>
        <path d="M 200.17392 123.04556 C 201.28456 129.34432 200.5268 135.80592 197.90065 142.43053 L 197.48447 143.41981 L 174.57286 201.66443 C 169.69888 214.0143 165.39424 223.6547 161.6588 230.58593 C 157.92337 237.51715 155.0663 241.15716 153.08752 241.50608 C 151.00458 241.87335 148.15015 240.80855 144.52413 238.31163 C 140.89811 235.8147 138.34905 233.0308 136.87689 229.95982 C 135.63851 227.4027 133.91197 221.82323 131.6972 213.22123 C 129.48244 204.61922 127.47803 195.2309 125.68391 185.05597 C 124.70617 179.5109 125.29475 174.11992 127.44968 168.88287 C 129.6046 163.64582 132.48724 160.70904 136.09765 160.07242 C 139.5345 159.46642 142.44176 163.97732 144.81953 173.60526 C 145.0883 174.72356 145.28751 175.54882 145.41715 176.08106 C 147.29208 183.46627 148.85509 188.575 150.1062 191.40741 C 151.35733 194.23982 152.60776 195.54583 153.85752 195.32546 C 154.37825 195.23364 155.19602 194.18743 156.31084 192.1868 C 157.42567 190.18617 158.70666 187.50404 160.15386 184.14033 L 184.26397 127.51619 C 186.2818 122.71963 188.18963 119.02496 189.9875 116.43206 C 191.78539 113.83916 193.44804 112.40806 194.97553 112.13872 C 196.12114 111.93672 197.0556 112.46581 197.77894 113.726 C 198.50227 114.98619 199.14396 117.2044 199.70403 120.38071 Z" fill="#1ddf00"/>
      </g>
      <g id="Graphic_12">
        <title/>
        <path d="M 347.0807 206.8248 C 347.0807 212.68076 345.8662 217.95105 343.43716 222.63583 C 341.00812 227.3206 337.48253 231.1562 332.86028 234.14274 C 328.75685 236.77793 324.2526 238.69573 319.34734 239.8962 C 314.4421 241.09668 308.82944 241.6969 302.50922 241.6969 C 297.8398 241.6969 293.04075 241.59443 288.11193 241.38947 C 283.1831 241.1845 280.43573 241.05275 279.86974 240.9942 C 280.01124 229.75073 280.10557 219.13695 280.15273 209.15253 C 280.1999 199.1681 280.22348 189.63766 280.22348 180.5609 C 280.22348 163.34436 280.16452 149.7148 280.0466 139.67182 C 279.9287 129.62883 279.86974 124.40246 279.86974 123.99254 C 280.53006 123.93398 283.13593 123.78759 287.68744 123.55335 C 292.23894 123.31911 296.66067 123.20199 300.95276 123.20199 C 305.81084 123.20199 310.29152 123.59726 314.39495 124.38782 C 318.49838 125.17837 321.965 126.27635 324.79496 127.68178 C 329.08705 129.78993 332.45936 132.82035 334.912 136.77313 C 337.3646 140.7259 338.5909 145.57165 338.5909 151.3105 C 338.5909 157.34214 337.04624 162.68563 333.95688 167.34113 C 330.8675 171.99662 327.34192 175.17344 323.38 176.87167 L 323.38 177.75006 C 326.63444 178.10142 329.7945 179.053 332.86028 180.60483 C 335.92606 182.15666 338.61447 184.36725 340.9256 187.23668 C 342.95372 189.75474 344.4866 192.53629 345.52424 195.5814 C 346.5619 198.6265 347.0807 202.37426 347.0807 206.8248 Z M 334.98273 207.26399 C 334.98273 204.27744 334.55824 201.59838 333.70926 199.2267 C 332.86027 196.85504 331.5868 194.5859 329.88885 192.41918 C 328.2852 190.42815 326.08024 188.81779 323.27387 187.58803 C 320.4675 186.35828 317.41356 185.74341 314.11196 185.74341 C 311.47067 185.74341 309.33645 185.7727 307.70923 185.83125 C 306.082 185.88981 305.009 185.9191 304.49018 185.9191 L 303.3582 175.3784 C 306.84847 175.26128 309.926 174.7489 312.59087 173.84122 C 315.25574 172.93354 317.6258 171.57205 319.70108 169.7567 C 321.68204 167.99991 323.30924 165.76004 324.5827 163.03701 C 325.8562 160.31399 326.49292 157.25429 326.49292 153.85783 C 326.49292 150.28569 325.78545 147.19671 324.37047 144.5908 C 322.9555 141.9849 321.02173 139.9207 318.5691 138.39815 C 316.4938 137.1684 313.9469 136.2461 310.92828 135.63122 C 307.90967 135.01634 304.67886 134.70891 301.23575 134.70891 C 299.01896 134.70891 296.97907 134.75283 295.116 134.84067 C 293.25297 134.92851 292.06205 134.97243 291.54322 134.97243 C 291.40172 143.52214 291.3192 152.59875 291.2956 162.20254 C 291.27202 171.80633 291.26023 178.77483 291.26023 183.10824 C 291.26023 193.1805 291.2956 203.29654 291.36635 213.45664 C 291.4371 223.61675 291.47247 229.04807 291.47247 229.7508 C 292.4158 229.80935 293.67746 229.88255 295.2575 229.9704 C 296.83757 230.05823 298.35864 230.10215 299.8208 230.10215 C 305.24485 230.10215 310.27973 229.7508 314.92556 229.04808 C 319.5714 228.34536 323.4979 226.8814 326.70517 224.65612 C 329.34646 222.84077 331.38635 220.46914 332.8249 217.54116 C 334.26346 214.61317 334.98273 211.18749 334.98273 207.26399 Z" fill="black"/>
      </g>
      <g id="Graphic_13">
        <title/>
        <path d="M 272.82663 236.77792 L 261.78988 243.80504 C 261.60122 243.1609 260.1273 238.79826 257.3681 230.71702 C 254.6089 222.63578 250.9654 212.2416 246.43748 199.53415 L 204.12995 199.53415 C 199.17754 213.17855 195.35716 223.74842 192.6687 231.24405 C 189.98026 238.7397 188.49456 242.92665 188.21156 243.80504 L 178.73128 237.48063 C 179.95759 234.43553 185.01605 221.01092 193.9068 197.20641 C 202.79756 173.4019 212.03014 148.38266 221.6048 122.14792 L 230.8021 122.14792 C 240.23525 148.38266 249.5032 173.79718 258.6062 198.39224 C 267.7092 222.9873 272.4493 235.7824 272.82663 236.77792 Z M 242.40482 188.29075 C 239.85787 181.14647 237.16946 173.68022 234.3395 165.89178 C 231.50956 158.10335 228.53815 149.96367 225.4252 141.47252 L 225.14222 141.47252 C 222.73676 147.91408 219.8361 155.83416 216.44017 165.23299 C 213.04423 174.63182 210.2379 182.31766 208.0211 188.29075 L 208.09186 188.37859 L 242.33407 188.37859 Z M 251.17762 99.04625 L 217.2184 115.29647 L 213.68098 106.60041 L 247.14496 88.50556 Z" fill="black"/>
      </g>
    </g>
  </g>
</svg>
